# xmcd
#
# Track frame offsets:
#	183
#	9573
#	32593
#	60315
#	74485
#	93893
#	113458
#	131370
#	153710
#	177595
#	193565
#	214648
#
# Disc length: 3077
#
# Revision: 1
# Processed by: cddbd v1.5.1PL0 Copyright (c) Steve Scherf et al.
# Submitted via: dBpowerAMP V4.0
# Normalized: r0:TRMNUM
#
DISCID=990c030c
DTITLE=Clins d'Oeil - Le rythme des gens
DYEAR=1991
DGENRE=Acoustic
TTITLE0=Intro
TTITLE1=Urbaine
TTITLE2=Sur la route
TTITLE3=On est deux
TTITLE4=Douce folie amère
TTITLE5=Pour un ami
TTITLE6=Voyage
TTITLE7=Mercredi 20 janvier
TTITLE8=La complainte du chien aux yeux d'or
TTITLE9=Amoureux d'une fille de rue
TTITLE10=Mots d'amour
TTITLE11=Jacky
EXTD=
EXTT0=
EXTT1=
EXTT2=
EXTT3=
EXTT4=
EXTT5=
EXTT6=
EXTT7=
EXTT8=
EXTT9=
EXTT10=
EXTT11=
PLAYORDER=
